<?xml version="1.0" encoding="utf-8"?>
<!-- Generator: Adobe Illustrator 22.1.0, SVG Export Plug-In . SVG Version: 6.00 Build 0)  -->
<svg version="1.1" id="Layer_1" xmlns="http://www.w3.org/2000/svg" xmlns:xlink="http://www.w3.org/1999/xlink" x="0px" y="0px"
	 viewBox="0 0 210.1 94.3" style="enable-background:new 0 0 210.1 94.3;" xml:space="preserve">
<style type="text/css">
	.st0{fill:#312933;}
	.st1{fill:#FAF9FB;}
	.st2{fill:#95C389;}
</style>
<g>
	<g>
		<path class="st0" d="M56.4,32V11.3h2.9l0.3,3.8h0.2c0.7-1.3,1.6-2.4,2.6-3.1c1-0.8,2.1-1.2,3.3-1.2c0.8,0,1.6,0.2,2.2,0.4
			l-0.7,3.1c-0.3-0.1-0.6-0.2-0.9-0.2C65.9,14,65.6,14,65.1,14c-0.9,0-1.8,0.3-2.8,1s-1.8,2-2.5,3.7v13.2L56.4,32L56.4,32z"/>
		<path class="st0" d="M69,32V11.3h3.5v20.6L69,32L69,32z"/>
		<path class="st0" d="M84.3,41.5c-1.3,0-2.4-0.2-3.5-0.4s-2-0.6-2.7-1.1c-0.8-0.5-1.3-1-1.7-1.7s-0.6-1.5-0.6-2.4
			c0-0.9,0.2-1.7,0.8-2.5s1.3-1.5,2.2-2.2v-0.2c-0.5-0.3-0.9-0.7-1.3-1.3c-0.4-0.6-0.6-1.3-0.6-2c0-0.9,0.2-1.7,0.7-2.3
			c0.5-0.6,1-1.2,1.5-1.5v-0.2c-0.7-0.6-1.3-1.3-1.8-2.3c-0.6-0.9-0.9-2-0.9-3.3c0-1.1,0.2-2.1,0.6-3.1c0.4-0.9,0.9-1.7,1.7-2.3
			c0.7-0.6,1.6-1.1,2.5-1.5c0.9-0.3,2-0.5,3-0.5c0.6,0,1.1,0.1,1.6,0.2s0.9,0.2,1.3,0.4h7.2v2.7h-4.2c0.5,0.5,0.9,1.1,1.2,1.8
			c0.3,0.7,0.5,1.6,0.5,2.4c0,1.1-0.2,2.1-0.6,3s-0.9,1.7-1.7,2.3c-0.7,0.6-1.5,1.1-2.4,1.4c-0.9,0.3-1.9,0.5-3,0.5
			c-0.5,0-1-0.1-1.6-0.2c-0.6-0.2-1-0.3-1.5-0.6c-0.4,0.3-0.7,0.6-0.9,1c-0.2,0.4-0.4,0.9-0.4,1.4c0,0.6,0.2,1.2,0.8,1.7
			c0.5,0.4,1.5,0.6,2.9,0.6h4c2.4,0,4.2,0.4,5.4,1.2c1.2,0.8,1.8,2,1.8,3.8c0,0.9-0.2,1.9-0.7,2.8s-1.2,1.7-2,2.3
			c-0.9,0.6-2,1.2-3.3,1.6C87.3,41.5,85.9,41.5,84.3,41.5z M84.8,39.1c1,0,1.9-0.2,2.7-0.4c0.8-0.2,1.5-0.6,2-0.9
			c0.6-0.4,1-0.9,1.3-1.3c0.3-0.5,0.5-1,0.5-1.6c0-0.9-0.4-1.7-1.1-2c-0.7-0.4-1.7-0.6-3.1-0.6h-3.5c-0.4,0-0.9,0-1.3-0.1
			c-0.5-0.1-0.9-0.2-1.4-0.3c-0.7,0.6-1.3,1.1-1.7,1.7c-0.3,0.6-0.5,1.2-0.5,1.8c0,1.1,0.6,2,1.6,2.6C81.5,38.8,82.9,39.1,84.8,39.1
			z M84.3,23.1c0.6,0,1.2-0.1,1.7-0.3c0.6-0.2,1-0.6,1.4-0.9c0.4-0.4,0.7-0.9,0.9-1.6c0.2-0.6,0.3-1.3,0.3-2c0-1.5-0.4-2.7-1.3-3.5
			c-0.9-0.9-1.9-1.3-3.1-1.3c-1.2,0-2.3,0.4-3.1,1.3c-0.9,0.9-1.3,2-1.3,3.5c0,0.8,0.1,1.4,0.3,2c0.2,0.6,0.6,1.1,0.9,1.6
			c0.4,0.4,0.9,0.8,1.4,0.9C83.2,23,83.7,23.1,84.3,23.1z"/>
		<path class="st0" d="M96.6,32V1.7h3.5V10l-0.2,4.2c1-0.9,2-1.7,3.1-2.4c1.1-0.6,2.4-1,3.8-1c2.2,0,3.8,0.7,4.8,2
			c1,1.3,1.5,3.4,1.5,6.1v13.1h-3.5V19.3c0-2-0.3-3.4-0.9-4.2c-0.6-0.9-1.7-1.3-3-1.3c-1.1,0-2,0.2-2.8,0.8
			c-0.8,0.6-1.7,1.3-2.8,2.4v14.9L96.6,32L96.6,32z"/>
		<path class="st0" d="M124,32.5c-1.1,0-2-0.2-2.8-0.5c-0.7-0.3-1.3-0.8-1.8-1.4c-0.5-0.6-0.8-1.3-1-2.2c-0.2-0.9-0.3-1.8-0.3-2.8
			V14.2h-3.1v-2.6l3.2-0.2l0.5-5.8h2.9v5.7h5.6v2.9h-5.6v11.5c0,1.3,0.2,2.3,0.7,3c0.5,0.7,1.3,1,2.5,1c0.4,0,0.8-0.1,1.2-0.2
			c0.4-0.1,0.8-0.2,1.2-0.4l0.7,2.6c-0.6,0.2-1.2,0.4-1.8,0.6C125.4,32.4,124.7,32.5,124,32.5z"/>
	</g>
	<g>
		<path class="st0" d="M138.5,32V11.3h2.9l0.3,3.8h0.2c0.7-1.3,1.6-2.4,2.6-3.1c1-0.8,2.1-1.2,3.3-1.2c0.8,0,1.6,0.2,2.2,0.4
			l-0.7,3.1c-0.3-0.1-0.6-0.2-0.9-0.2c-0.3-0.1-0.6-0.1-1.1-0.1c-0.9,0-1.8,0.3-2.8,1s-1.8,2-2.5,3.7v13.2L138.5,32L138.5,32z"/>
		<path class="st0" d="M151.2,32V11.3h3.5v20.6L151.2,32L151.2,32z"/>
		<path class="st0" d="M166.4,41.5c-1.3,0-2.4-0.2-3.5-0.4s-2-0.6-2.7-1.1c-0.8-0.5-1.3-1-1.7-1.7s-0.6-1.5-0.6-2.4
			c0-0.9,0.2-1.7,0.8-2.5c0.6-0.8,1.3-1.5,2.2-2.2v-0.2c-0.5-0.3-0.9-0.7-1.3-1.3c-0.4-0.6-0.6-1.3-0.6-2c0-0.9,0.2-1.7,0.7-2.3
			c0.5-0.6,1-1.2,1.5-1.5v-0.2c-0.7-0.6-1.3-1.3-1.8-2.3c-0.6-0.9-0.9-2-0.9-3.3c0-1.1,0.2-2.1,0.6-3.1c0.4-0.9,0.9-1.7,1.7-2.3
			c0.7-0.6,1.6-1.1,2.5-1.5c0.9-0.3,2-0.5,3-0.5c0.6,0,1.1,0.1,1.6,0.2c0.5,0.1,0.9,0.2,1.3,0.4h7.2v2.7h-4.2
			c0.5,0.5,0.9,1.1,1.2,1.8c0.3,0.7,0.5,1.6,0.5,2.4c0,1.1-0.2,2.1-0.6,3c-0.4,0.9-0.9,1.7-1.7,2.3c-0.7,0.6-1.5,1.1-2.4,1.4
			c-0.9,0.3-1.9,0.5-3,0.5c-0.5,0-1-0.1-1.6-0.2c-0.6-0.2-1-0.3-1.5-0.6c-0.4,0.3-0.7,0.6-0.9,1s-0.4,0.9-0.4,1.4
			c0,0.6,0.2,1.2,0.8,1.7c0.5,0.4,1.5,0.6,2.9,0.6h4c2.4,0,4.2,0.4,5.4,1.2c1.2,0.8,1.8,2,1.8,3.8c0,0.9-0.2,1.9-0.7,2.8
			s-1.2,1.7-2,2.3c-0.9,0.6-2,1.2-3.3,1.6C169.4,41.5,168.1,41.5,166.4,41.5z M167,39.1c1,0,1.9-0.2,2.7-0.4c0.8-0.2,1.5-0.6,2-0.9
			c0.6-0.4,1-0.9,1.3-1.3c0.3-0.5,0.5-1,0.5-1.6c0-0.9-0.4-1.7-1.1-2c-0.7-0.4-1.7-0.6-3.1-0.6h-3.5c-0.4,0-0.9,0-1.3-0.1
			c-0.5-0.1-0.9-0.2-1.4-0.3c-0.7,0.6-1.3,1.1-1.7,1.7c-0.3,0.6-0.5,1.2-0.5,1.8c0,1.1,0.6,2,1.6,2.6
			C163.6,38.8,165.1,39.1,167,39.1z M166.4,23.1c0.6,0,1.2-0.1,1.7-0.3c0.6-0.2,1-0.6,1.4-0.9c0.4-0.4,0.7-0.9,0.9-1.6
			c0.2-0.6,0.3-1.3,0.3-2c0-1.5-0.4-2.7-1.3-3.5c-0.9-0.9-1.9-1.3-3.1-1.3s-2.3,0.4-3.1,1.3c-0.9,0.9-1.3,2-1.3,3.5
			c0,0.8,0.1,1.4,0.3,2c0.2,0.6,0.6,1.1,0.9,1.6c0.4,0.4,0.9,0.8,1.4,0.9C165.3,23,165.9,23.1,166.4,23.1z"/>
		<path class="st0" d="M178.8,32V1.7h3.5V10l-0.2,4.2c1-0.9,2-1.7,3.1-2.4c1.1-0.6,2.4-1,3.8-1c2.2,0,3.8,0.7,4.8,2s1.5,3.4,1.5,6.1
			v13.1h-3.5V19.3c0-2-0.3-3.4-0.9-4.2c-0.6-0.9-1.7-1.3-3-1.3c-1.1,0-2,0.2-2.8,0.8c-0.8,0.6-1.7,1.3-2.8,2.4v14.9L178.8,32
			L178.8,32z"/>
		<path class="st0" d="M206.2,32.5c-1.1,0-2-0.2-2.8-0.5c-0.7-0.3-1.3-0.8-1.8-1.4c-0.5-0.6-0.8-1.3-1-2.2c-0.2-0.9-0.3-1.8-0.3-2.8
			V14.2h-3.1v-2.6l3.2-0.2l0.4-5.7h2.9v5.7h5.6v2.8h-5.6v11.5c0,1.3,0.2,2.3,0.7,3c0.5,0.7,1.3,1,2.5,1c0.4,0,0.8-0.1,1.2-0.2
			c0.4-0.1,0.8-0.2,1.2-0.4l0.7,2.6c-0.6,0.2-1.2,0.4-1.8,0.6C207.6,32.4,206.9,32.5,206.2,32.5z"/>
	</g>
	<g>
		<path class="st0" d="M42.1,41.5c0,0.4-0.4,0.8-0.8,0.8H0.8c-0.5,0-0.8-0.4-0.8-0.8V1.1c0-0.4,0.3-0.8,0.8-0.8h40.5
			c0.4,0,0.8,0.3,0.8,0.8V41.5z"/>
	</g>
	<g>
		<g>
			<path class="st1" d="M19.8,22.8c0.3-0.3,0.8-0.8,1.1-1.1l5.7-5.7c0.3-0.3,0.3-0.8,0-1.1l-0.8-0.8c-0.3-0.3-0.9-0.4-1.2-0.2
				l-10.3,6.8c-0.4,0.2-0.9,0.3-1.3,0.1l-6.3-3.1c-0.4-0.2-0.9-0.1-1.3,0.2l-0.8,0.8c-0.3,0.3-0.3,0.8,0,1.1l3.7,3.7
				c0.3,0.3,0.8,0.8,1.1,1.1l3.7,3.7c0.3,0.3,0.8,0.3,1.1,0L19.8,22.8z"/>
		</g>
		<g>
			<path class="st1" d="M36.7,14.1c-0.3-0.3-0.9-0.4-1.2-0.2l-10.3,6.8c-0.4,0.2-0.9,0.3-1.1,0.2c-0.2-0.1-0.7,0-0.9,0.3l-2.5,2.5
				c-0.3,0.3-0.3,0.8,0,1.1l3.4,3.4c0.3,0.3,0.8,0.3,1.1,0l5.7-5.7c0.3-0.3,0.8-0.8,1.1-1.1l5.7-5.7c0.3-0.3,0.3-0.8,0-1.1
				L36.7,14.1z"/>
		</g>
	</g>
</g>
<g>
	<g>
		<path class="st2" d="M56.4,84V63.3h2.9l0.3,3.8h0.2c0.7-1.3,1.6-2.4,2.6-3.1c1-0.8,2.1-1.2,3.3-1.2c0.8,0,1.6,0.2,2.2,0.4
			l-0.7,3.1c-0.3-0.1-0.6-0.2-0.9-0.2C65.9,66,65.6,66,65.1,66c-0.9,0-1.8,0.3-2.8,1c-0.9,0.7-1.8,2-2.5,3.7v13.2L56.4,84L56.4,84z"
			/>
		<path class="st2" d="M69,84V63.3h3.5v20.6L69,84L69,84z"/>
		<path class="st2" d="M84.3,93.5c-1.3,0-2.4-0.2-3.5-0.4c-1-0.2-2-0.6-2.7-1.1c-0.8-0.5-1.3-1-1.7-1.7s-0.6-1.5-0.6-2.4
			s0.2-1.7,0.8-2.5s1.3-1.5,2.2-2.2v-0.2c-0.5-0.3-0.9-0.7-1.3-1.3c-0.4-0.6-0.6-1.3-0.6-2c0-0.9,0.2-1.7,0.7-2.3
			c0.5-0.6,1-1.2,1.5-1.5v-0.2c-0.7-0.6-1.3-1.3-1.8-2.3c-0.6-0.9-0.9-2-0.9-3.3c0-1.1,0.2-2.1,0.6-3.1c0.4-0.9,0.9-1.7,1.7-2.3
			c0.7-0.6,1.6-1.1,2.5-1.5c0.9-0.3,2-0.5,3-0.5c0.6,0,1.1,0.1,1.6,0.2s0.9,0.2,1.3,0.4h7.2v2.7h-4.2c0.5,0.5,0.9,1.1,1.2,1.8
			c0.3,0.7,0.5,1.6,0.5,2.4c0,1.1-0.2,2.1-0.6,3s-0.9,1.7-1.7,2.3c-0.7,0.6-1.5,1.1-2.4,1.4c-0.9,0.3-1.9,0.5-3,0.5
			c-0.5,0-1-0.1-1.6-0.2c-0.6-0.2-1-0.3-1.5-0.6c-0.4,0.3-0.7,0.6-0.9,1c-0.2,0.4-0.4,0.9-0.4,1.4c0,0.6,0.2,1.2,0.8,1.7
			c0.5,0.4,1.5,0.6,2.9,0.6h4c2.4,0,4.2,0.4,5.4,1.2c1.2,0.8,1.8,2,1.8,3.8c0,0.9-0.2,1.9-0.7,2.8c-0.5,0.9-1.2,1.7-2,2.3
			c-0.9,0.6-2,1.2-3.3,1.6C87.3,93.5,85.9,93.5,84.3,93.5z M84.8,91.1c1,0,1.9-0.2,2.7-0.4c0.8-0.2,1.5-0.6,2-0.9s1-0.9,1.3-1.3
			s0.5-1,0.5-1.6c0-0.9-0.4-1.7-1.1-2c-0.7-0.4-1.7-0.6-3.1-0.6h-3.5c-0.4,0-0.9,0-1.3-0.1c-0.5-0.1-0.9-0.2-1.4-0.3
			c-0.7,0.6-1.3,1.1-1.7,1.7c-0.3,0.6-0.5,1.2-0.5,1.8c0,1.1,0.6,2,1.6,2.6C81.5,90.8,82.9,91.1,84.8,91.1z M84.3,75.1
			c0.6,0,1.2-0.1,1.7-0.3c0.6-0.2,1-0.6,1.4-0.9s0.7-0.9,0.9-1.6c0.2-0.6,0.3-1.3,0.3-2c0-1.5-0.4-2.7-1.3-3.5
			c-0.9-0.9-1.9-1.3-3.1-1.3c-1.2,0-2.3,0.4-3.1,1.3c-0.9,0.9-1.3,2-1.3,3.5c0,0.8,0.1,1.4,0.3,2c0.2,0.6,0.6,1.1,0.9,1.6
			c0.4,0.4,0.9,0.8,1.4,0.9C83.2,75,83.7,75.1,84.3,75.1z"/>
		<path class="st2" d="M96.6,84V53.7h3.5V62l-0.2,4.2c1-0.9,2-1.7,3.1-2.4c1.1-0.6,2.4-1,3.8-1c2.2,0,3.8,0.7,4.8,2
			c1,1.3,1.5,3.4,1.5,6.1v13.1h-3.5V71.3c0-2-0.3-3.4-0.9-4.2c-0.6-0.9-1.7-1.3-3-1.3c-1.1,0-2,0.2-2.8,0.8
			c-0.8,0.6-1.7,1.3-2.8,2.4v14.9L96.6,84L96.6,84z"/>
		<path class="st2" d="M124,84.5c-1.1,0-2-0.2-2.8-0.5c-0.7-0.3-1.3-0.8-1.8-1.4c-0.5-0.6-0.8-1.3-1-2.2c-0.2-0.9-0.3-1.8-0.3-2.8
			V66.2h-3.1v-2.6l3.2-0.2l0.5-5.8h2.9v5.7h5.6v2.9h-5.6v11.5c0,1.3,0.2,2.3,0.7,3c0.5,0.7,1.3,1,2.5,1c0.4,0,0.8-0.1,1.2-0.2
			s0.8-0.2,1.2-0.4l0.7,2.6c-0.6,0.2-1.2,0.4-1.8,0.6C125.4,84.4,124.7,84.5,124,84.5z"/>
	</g>
	<g>
		<path class="st2" d="M138.5,84V63.3h2.9l0.3,3.8h0.2c0.7-1.3,1.6-2.4,2.6-3.1c1-0.8,2.1-1.2,3.3-1.2c0.8,0,1.6,0.2,2.2,0.4
			l-0.7,3.1c-0.3-0.1-0.6-0.2-0.9-0.2c-0.3-0.1-0.6-0.1-1.1-0.1c-0.9,0-1.8,0.3-2.8,1c-0.9,0.7-1.8,2-2.5,3.7v13.2L138.5,84
			L138.5,84z"/>
		<path class="st2" d="M151.2,84V63.3h3.5v20.6L151.2,84L151.2,84z"/>
		<path class="st2" d="M166.4,93.5c-1.3,0-2.4-0.2-3.5-0.4c-1-0.2-2-0.6-2.7-1.1c-0.8-0.5-1.3-1-1.7-1.7s-0.6-1.5-0.6-2.4
			s0.2-1.7,0.8-2.5c0.6-0.8,1.3-1.5,2.2-2.2v-0.2c-0.5-0.3-0.9-0.7-1.3-1.3c-0.4-0.6-0.6-1.3-0.6-2c0-0.9,0.2-1.7,0.7-2.3
			c0.5-0.6,1-1.2,1.5-1.5v-0.2c-0.7-0.6-1.3-1.3-1.8-2.3c-0.6-0.9-0.9-2-0.9-3.3c0-1.1,0.2-2.1,0.6-3.1c0.4-0.9,0.9-1.7,1.7-2.3
			c0.7-0.6,1.6-1.1,2.5-1.5c0.9-0.3,2-0.5,3-0.5c0.6,0,1.1,0.1,1.6,0.2c0.5,0.1,0.9,0.2,1.3,0.4h7.2v2.7h-4.2
			c0.5,0.5,0.9,1.1,1.2,1.8c0.3,0.7,0.5,1.6,0.5,2.4c0,1.1-0.2,2.1-0.6,3c-0.4,0.9-0.9,1.7-1.7,2.3c-0.7,0.6-1.5,1.1-2.4,1.4
			c-0.9,0.3-1.9,0.5-3,0.5c-0.5,0-1-0.1-1.6-0.2c-0.6-0.2-1-0.3-1.5-0.6c-0.4,0.3-0.7,0.6-0.9,1c-0.2,0.4-0.4,0.9-0.4,1.4
			c0,0.6,0.2,1.2,0.8,1.7c0.5,0.4,1.5,0.6,2.9,0.6h4c2.4,0,4.2,0.4,5.4,1.2s1.8,2,1.8,3.8c0,0.9-0.2,1.9-0.7,2.8
			c-0.5,0.9-1.2,1.7-2,2.3c-0.9,0.6-2,1.2-3.3,1.6S168.1,93.5,166.4,93.5z M167,91.1c1,0,1.9-0.2,2.7-0.4c0.8-0.2,1.5-0.6,2-0.9
			s1-0.9,1.3-1.3s0.5-1,0.5-1.6c0-0.9-0.4-1.7-1.1-2c-0.7-0.4-1.7-0.6-3.1-0.6h-3.5c-0.4,0-0.9,0-1.3-0.1c-0.5-0.1-0.9-0.2-1.4-0.3
			c-0.7,0.6-1.3,1.1-1.7,1.7c-0.3,0.6-0.5,1.2-0.5,1.8c0,1.1,0.6,2,1.6,2.6C163.6,90.8,165.1,91.1,167,91.1z M166.4,75.1
			c0.6,0,1.2-0.1,1.7-0.3c0.6-0.2,1-0.6,1.4-0.9c0.4-0.4,0.7-0.9,0.9-1.6c0.2-0.6,0.3-1.3,0.3-2c0-1.5-0.4-2.7-1.3-3.5
			c-0.9-0.9-1.9-1.3-3.1-1.3s-2.3,0.4-3.1,1.3c-0.9,0.9-1.3,2-1.3,3.5c0,0.8,0.1,1.4,0.3,2c0.2,0.6,0.6,1.1,0.9,1.6
			c0.4,0.4,0.9,0.8,1.4,0.9C165.3,75,165.9,75.1,166.4,75.1z"/>
		<path class="st2" d="M178.8,84V53.7h3.5V62l-0.2,4.2c1-0.9,2-1.7,3.1-2.4c1.1-0.6,2.4-1,3.8-1c2.2,0,3.8,0.7,4.8,2
			c1,1.3,1.5,3.4,1.5,6.1v13.1h-3.5V71.3c0-2-0.3-3.4-0.9-4.2c-0.6-0.9-1.7-1.3-3-1.3c-1.1,0-2,0.2-2.8,0.8
			c-0.8,0.6-1.7,1.3-2.8,2.4v14.9L178.8,84L178.8,84z"/>
		<path class="st2" d="M206.2,84.5c-1.1,0-2-0.2-2.8-0.5s-1.3-0.8-1.8-1.4c-0.5-0.6-0.8-1.3-1-2.2c-0.2-0.9-0.3-1.8-0.3-2.8V66.2
			h-3.1v-2.6l3.2-0.2l0.4-5.7h2.9v5.7h5.6v2.8h-5.6v11.5c0,1.3,0.2,2.3,0.7,3c0.5,0.7,1.3,1,2.5,1c0.4,0,0.8-0.1,1.2-0.2
			c0.4-0.1,0.8-0.2,1.2-0.4l0.7,2.6c-0.6,0.2-1.2,0.4-1.8,0.6C207.6,84.4,206.9,84.5,206.2,84.5z"/>
	</g>
	<g>
		<path class="st2" d="M42.1,93.5c0,0.5-0.4,0.8-0.8,0.8H0.8C0.3,94.3,0,94,0,93.5V53.1c0-0.4,0.3-0.8,0.8-0.8h40.5
			c0.4,0,0.8,0.4,0.8,0.8V93.5z"/>
	</g>
	<g>
		<g>
			<path class="st1" d="M19.8,74.8c0.3-0.3,0.8-0.8,1.1-1.1l5.7-5.7c0.3-0.3,0.3-0.8,0-1.1l-0.8-0.8c-0.3-0.3-0.9-0.4-1.2-0.2
				l-10.3,6.8c-0.4,0.2-0.9,0.3-1.3,0.1l-6.3-3.1c-0.4-0.2-0.9-0.1-1.3,0.2l-0.8,0.8c-0.3,0.3-0.3,0.8,0,1.1l3.7,3.7
				c0.3,0.3,0.8,0.8,1.1,1.1l3.7,3.7c0.3,0.3,0.8,0.3,1.1,0L19.8,74.8z"/>
		</g>
		<g>
			<path class="st1" d="M36.7,66.1c-0.3-0.3-0.9-0.4-1.2-0.2l-10.3,6.8c-0.4,0.2-0.9,0.3-1.1,0.2c-0.2-0.1-0.7,0-0.9,0.3l-2.5,2.5
				c-0.3,0.3-0.3,0.8,0,1.1l3.4,3.4c0.3,0.3,0.8,0.3,1.1,0l5.7-5.7c0.3-0.3,0.8-0.8,1.1-1.1l5.7-5.7c0.3-0.3,0.3-0.8,0-1.1
				L36.7,66.1z"/>
		</g>
	</g>
</g>
</svg>
