<?xml version="1.0" encoding="UTF-8" standalone="no"?>
<svg
   xmlns:dc="http://purl.org/dc/elements/1.1/"
   xmlns:cc="http://creativecommons.org/ns#"
   xmlns:rdf="http://www.w3.org/1999/02/22-rdf-syntax-ns#"
   xmlns:svg="http://www.w3.org/2000/svg"
   xmlns="http://www.w3.org/2000/svg"
   xmlns:sodipodi="http://sodipodi.sourceforge.net/DTD/sodipodi-0.dtd"
   xmlns:inkscape="http://www.inkscape.org/namespaces/inkscape"
   inkscape:version="1.0 (4035a4f, 2020-05-01)"
   sodipodi:docname="sticker_001.svg"
   width="125.62204mm"
   height="25.159052mm"
   viewBox="0 0 125.62204 25.159052"
   version="1.1"
   id="svg429">
  <sodipodi:namedview
     inkscape:current-layer="svg429"
     inkscape:window-maximized="1"
     inkscape:window-y="23"
     inkscape:window-x="0"
     inkscape:cy="374.5188"
     inkscape:cx="262.8178"
     inkscape:zoom="0.79375"
     fit-margin-bottom="0"
     fit-margin-right="0"
     fit-margin-left="0"
     fit-margin-top="0"
     showgrid="false"
     id="namedview34"
     inkscape:window-height="1035"
     inkscape:window-width="1920"
     inkscape:pageshadow="2"
     inkscape:pageopacity="0"
     guidetolerance="10"
     gridtolerance="10"
     objecttolerance="10"
     borderopacity="1"
     bordercolor="#666666"
     pagecolor="#ffffff" />
  <defs
     id="defs423" />
  <metadata
     id="metadata426">
    <rdf:RDF>
      <cc:Work
         rdf:about="">
        <dc:format>image/svg+xml</dc:format>
        <dc:type
           rdf:resource="http://purl.org/dc/dcmitype/StillImage" />
        <dc:title></dc:title>
      </cc:Work>
    </rdf:RDF>
  </metadata>
  <g
     transform="translate(-35.462789,-49.408569)"
     id="layer1">
    <g
       id="g230"
       transform="matrix(0.35277777,0,0,-0.35277777,69.176067,68.376194)">
      <path
         d="M 0,0 V 34.992 H 4.896 L 5.4,28.656 h 0.215 c 1.199,2.207 2.653,3.959 4.358,5.256 1.703,1.295 3.562,1.943 5.578,1.943 1.392,0 2.64,-0.24 3.744,-0.718 l -1.15,-5.186 c -0.577,0.192 -1.106,0.336 -1.584,0.434 -0.481,0.095 -1.081,0.142 -1.801,0.142 -1.489,0 -3.037,-0.599 -4.645,-1.798 C 8.508,27.527 7.104,25.439 5.904,22.465 V 0 Z"
         style="fill:#312933;fill-opacity:1;fill-rule:nonzero;stroke:none"
         id="path232" />
    </g>
    <path
       d="m 76.719338,56.031654 h 2.0828 v 12.3444 h -2.0828 z m 1.0668,-2.539647 c -0.406752,0 -0.748948,-0.127352 -1.0287,-0.381 -0.279048,-0.254352 -0.4191,-0.57538 -0.4191,-0.9652 0,-0.406753 0.140052,-0.732719 0.4191,-0.9779 0.279752,-0.24518 0.621948,-0.368653 1.0287,-0.368653 0.4064,0 0.749652,0.123473 1.0287,0.368653 0.279752,0.245181 0.418748,0.571147 0.418748,0.9779 0,0.38982 -0.138996,0.710848 -0.418748,0.9652 -0.279048,0.253648 -0.6223,0.381 -1.0287,0.381"
       style="fill:#312933;fill-opacity:1;fill-rule:nonzero;stroke:none;stroke-width:0.352777"
       id="path234" />
    <g
       id="g236"
       transform="matrix(0.35277777,0,0,-0.35277777,85.863409,63.067277)">
      <path
         d="M 0,0 C 1.008,0 1.955,0.189 2.844,0.574 3.73,0.959 4.523,1.512 5.219,2.23 5.914,2.951 6.455,3.826 6.84,4.859 c 0.383,1.032 0.576,2.196 0.576,3.493 0,2.591 -0.721,4.595 -2.16,6.011 -1.442,1.416 -3.193,2.123 -5.256,2.123 -2.064,0 -3.816,-0.707 -5.258,-2.123 -1.439,-1.416 -2.158,-3.42 -2.158,-6.011 0,-1.297 0.189,-2.461 0.574,-3.493 C -6.457,3.826 -5.918,2.951 -5.221,2.23 -4.525,1.512 -3.734,0.959 -2.846,0.574 -1.957,0.189 -1.01,0 0,0 m 0.863,-27.072 c 1.68,0 3.203,0.205 4.573,0.611 1.367,0.408 2.531,0.936 3.492,1.584 0.959,0.648 1.703,1.404 2.23,2.268 0.53,0.865 0.793,1.754 0.793,2.664 0,1.633 -0.601,2.761 -1.801,3.384 -1.199,0.625 -2.951,0.936 -5.255,0.936 h -6.047 c -0.674,0 -1.405,0.037 -2.198,0.107 -0.791,0.073 -1.572,0.229 -2.339,0.469 -1.248,-0.912 -2.161,-1.871 -2.737,-2.881 -0.574,-1.007 -0.863,-2.015 -0.863,-3.023 0,-1.871 0.9,-3.359 2.699,-4.463 1.801,-1.104 4.285,-1.656 7.453,-1.656 M 0,-31.178 c -2.16,0 -4.129,0.205 -5.904,0.614 -1.778,0.408 -3.301,1.019 -4.573,1.835 -1.273,0.817 -2.257,1.799 -2.953,2.952 -0.695,1.152 -1.043,2.496 -1.043,4.033 0,1.488 0.455,2.904 1.368,4.248 0.912,1.344 2.16,2.566 3.744,3.672 v 0.287 c -0.864,0.527 -1.596,1.26 -2.196,2.195 -0.601,0.938 -0.9,2.1 -0.9,3.492 0,1.489 0.408,2.784 1.225,3.889 0.814,1.104 1.679,1.967 2.591,2.592 v 0.289 c -1.152,0.959 -2.195,2.242 -3.132,3.851 -0.936,1.608 -1.405,3.467 -1.405,5.581 0,1.918 0.348,3.646 1.045,5.183 0.695,1.535 1.643,2.844 2.844,3.924 1.199,1.08 2.603,1.908 4.213,2.484 1.607,0.577 3.299,0.864 5.076,0.864 0.959,0 1.859,-0.084 2.699,-0.252 0.84,-0.168 1.596,-0.371 2.268,-0.612 H 17.135 V 15.406 H 9.936 c 0.814,-0.816 1.5,-1.847 2.05,-3.095 0.553,-1.248 0.828,-2.616 0.828,-4.104 0,-1.871 -0.335,-3.564 -1.007,-5.076 C 11.135,1.619 10.223,0.348 9.07,-0.686 7.92,-1.717 6.562,-2.521 5.004,-3.098 3.443,-3.672 1.773,-3.961 0,-3.961 c -0.865,0 -1.754,0.107 -2.664,0.324 -0.914,0.217 -1.777,0.516 -2.594,0.901 -0.623,-0.53 -1.15,-1.118 -1.584,-1.764 -0.431,-0.648 -0.646,-1.453 -0.646,-2.412 0,-1.106 0.431,-2.018 1.295,-2.736 0.865,-0.721 2.496,-1.081 4.896,-1.081 h 6.768 c 4.08,0 7.14,-0.66 9.179,-1.98 2.041,-1.32 3.061,-3.443 3.061,-6.371 0,-1.633 -0.408,-3.18 -1.225,-4.645 -0.816,-1.462 -1.992,-2.748 -3.527,-3.851 -1.537,-1.104 -3.396,-1.981 -5.58,-2.629 C 5.195,-30.854 2.734,-31.178 0,-31.178"
         style="fill:#312933;fill-opacity:1;fill-rule:nonzero;stroke:none"
         id="path238" />
    </g>
    <g
       id="g240"
       transform="matrix(0.35277777,0,0,-0.35277777,93.22902,68.376194)">
      <path
         d="M 0,0 V 51.264 H 5.904 V 37.297 L 5.687,30.096 c 1.68,1.584 3.432,2.939 5.256,4.068 1.825,1.127 3.961,1.691 6.409,1.691 3.695,0 6.396,-1.152 8.099,-3.455 1.703,-2.304 2.557,-5.713 2.557,-10.224 V 0 h -5.904 v 21.385 c 0,3.31 -0.53,5.699 -1.584,7.164 -1.057,1.463 -2.737,2.195 -5.04,2.195 -1.826,0 -3.433,-0.457 -4.824,-1.367 C 9.264,28.463 7.68,27.119 5.904,25.344 V 0 Z"
         style="fill:#312933;fill-opacity:1;fill-rule:nonzero;stroke:none"
         id="path242" />
    </g>
    <g
       id="g244"
       transform="matrix(0.35277777,0,0,-0.35277777,109.66282,68.680714)">
      <path
         d="M 0,0 C -1.871,0 -3.445,0.287 -4.717,0.863 -5.988,1.439 -7.02,2.23 -7.812,3.24 c -0.792,1.008 -1.356,2.231 -1.692,3.672 -0.336,1.44 -0.504,3.024 -0.504,4.752 v 19.367 h -5.183 v 4.465 l 5.47,0.359 0.721,9.791 h 4.969 V 35.855 H 5.4 V 31.031 H -4.031 V 11.592 c 0,-2.16 0.394,-3.828 1.187,-5.004 0.791,-1.178 2.196,-1.764 4.211,-1.764 0.625,0 1.297,0.094 2.018,0.287 0.719,0.192 1.367,0.407 1.943,0.649 L 6.48,1.295 C 5.52,0.959 4.475,0.66 3.348,0.395 2.219,0.133 1.104,0 0,0"
         style="fill:#312933;fill-opacity:1;fill-rule:nonzero;stroke:none"
         id="path246" />
    </g>
    <g
       id="g248"
       transform="matrix(0.35277777,0,0,-0.35277777,118.31279,68.376194)">
      <path
         d="M 0,0 V 34.992 H 4.896 L 5.4,28.656 h 0.215 c 1.199,2.207 2.653,3.959 4.358,5.256 1.703,1.295 3.562,1.943 5.578,1.943 1.392,0 2.64,-0.24 3.744,-0.718 l -1.15,-5.186 c -0.577,0.192 -1.106,0.336 -1.584,0.434 -0.481,0.095 -1.081,0.142 -1.801,0.142 -1.489,0 -3.037,-0.599 -4.645,-1.798 C 8.508,27.527 7.104,25.439 5.904,22.465 V 0 Z"
         style="fill:#312933;fill-opacity:1;fill-rule:nonzero;stroke:none"
         id="path250" />
    </g>
    <path
       d="m 125.85599,56.031654 h 2.0828 v 12.3444 h -2.0828 z m 1.0668,-2.539647 c -0.4064,0 -0.74895,-0.127352 -1.0287,-0.381 -0.27905,-0.254352 -0.4191,-0.57538 -0.4191,-0.9652 0,-0.406753 0.14005,-0.732719 0.4191,-0.9779 0.27975,-0.24518 0.6223,-0.368653 1.0287,-0.368653 0.4064,0 0.74965,0.123473 1.0287,0.368653 0.27975,0.245181 0.41875,0.571147 0.41875,0.9779 0,0.38982 -0.139,0.710848 -0.41875,0.9652 -0.27905,0.253648 -0.6223,0.381 -1.0287,0.381"
       style="fill:#312933;fill-opacity:1;fill-rule:nonzero;stroke:none;stroke-width:0.352777"
       id="path252" />
    <g
       id="g254"
       transform="matrix(0.35277777,0,0,-0.35277777,135.00012,63.067277)">
      <path
         d="M 0,0 C 1.008,0 1.955,0.189 2.844,0.574 3.73,0.959 4.523,1.512 5.219,2.23 5.914,2.951 6.455,3.826 6.84,4.859 c 0.383,1.032 0.576,2.196 0.576,3.493 0,2.591 -0.721,4.595 -2.16,6.011 -1.442,1.416 -3.193,2.123 -5.256,2.123 -2.064,0 -3.816,-0.707 -5.258,-2.123 -1.439,-1.416 -2.158,-3.42 -2.158,-6.011 0,-1.297 0.189,-2.461 0.574,-3.493 C -6.457,3.826 -5.918,2.951 -5.221,2.23 -4.525,1.512 -3.734,0.959 -2.846,0.574 -1.957,0.189 -1.01,0 0,0 m 0.863,-27.072 c 1.68,0 3.203,0.205 4.573,0.611 1.367,0.408 2.531,0.936 3.492,1.584 0.959,0.648 1.703,1.404 2.23,2.268 0.53,0.865 0.793,1.754 0.793,2.664 0,1.633 -0.601,2.761 -1.801,3.384 -1.199,0.625 -2.951,0.936 -5.255,0.936 h -6.047 c -0.674,0 -1.405,0.037 -2.198,0.107 -0.791,0.073 -1.572,0.229 -2.339,0.469 -1.248,-0.912 -2.161,-1.871 -2.737,-2.881 -0.574,-1.007 -0.863,-2.015 -0.863,-3.023 0,-1.871 0.9,-3.359 2.699,-4.463 1.801,-1.104 4.285,-1.656 7.453,-1.656 M 0,-31.178 c -2.16,0 -4.129,0.205 -5.904,0.614 -1.778,0.408 -3.301,1.019 -4.573,1.835 -1.273,0.817 -2.257,1.799 -2.953,2.952 -0.695,1.152 -1.043,2.496 -1.043,4.033 0,1.488 0.455,2.904 1.368,4.248 0.912,1.344 2.16,2.566 3.744,3.672 v 0.287 c -0.864,0.527 -1.596,1.26 -2.196,2.195 -0.601,0.938 -0.9,2.1 -0.9,3.492 0,1.489 0.408,2.784 1.225,3.889 0.814,1.104 1.679,1.967 2.591,2.592 v 0.289 c -1.152,0.959 -2.195,2.242 -3.132,3.851 -0.936,1.608 -1.405,3.467 -1.405,5.581 0,1.918 0.348,3.646 1.045,5.183 0.695,1.535 1.643,2.844 2.844,3.924 1.199,1.08 2.603,1.908 4.213,2.484 1.607,0.577 3.299,0.864 5.076,0.864 0.959,0 1.859,-0.084 2.699,-0.252 0.84,-0.168 1.596,-0.371 2.268,-0.612 H 17.135 V 15.406 H 9.936 c 0.814,-0.816 1.5,-1.847 2.05,-3.095 0.553,-1.248 0.828,-2.616 0.828,-4.104 0,-1.871 -0.335,-3.564 -1.007,-5.076 C 11.135,1.619 10.223,0.348 9.07,-0.686 7.92,-1.717 6.562,-2.521 5.004,-3.098 3.443,-3.672 1.773,-3.961 0,-3.961 c -0.865,0 -1.754,0.107 -2.664,0.324 -0.914,0.217 -1.777,0.516 -2.594,0.901 -0.623,-0.53 -1.15,-1.118 -1.584,-1.764 -0.431,-0.648 -0.646,-1.453 -0.646,-2.412 0,-1.106 0.431,-2.018 1.295,-2.736 0.865,-0.721 2.496,-1.081 4.896,-1.081 h 6.768 c 4.08,0 7.14,-0.66 9.179,-1.98 2.041,-1.32 3.061,-3.443 3.061,-6.371 0,-1.633 -0.408,-3.18 -1.225,-4.645 -0.816,-1.462 -1.992,-2.748 -3.527,-3.851 -1.537,-1.104 -3.396,-1.981 -5.58,-2.629 C 5.195,-30.854 2.734,-31.178 0,-31.178"
         style="fill:#312933;fill-opacity:1;fill-rule:nonzero;stroke:none"
         id="path256" />
    </g>
    <g
       id="g258"
       transform="matrix(0.35277777,0,0,-0.35277777,142.36575,68.376194)">
      <path
         d="M 0,0 V 51.264 H 5.904 V 37.297 L 5.687,30.096 c 1.68,1.584 3.432,2.939 5.256,4.068 1.825,1.127 3.961,1.691 6.409,1.691 3.695,0 6.396,-1.152 8.099,-3.455 1.703,-2.304 2.557,-5.713 2.557,-10.224 V 0 h -5.904 v 21.385 c 0,3.31 -0.53,5.699 -1.584,7.164 -1.057,1.463 -2.737,2.195 -5.04,2.195 -1.826,0 -3.433,-0.457 -4.824,-1.367 C 9.264,28.463 7.68,27.119 5.904,25.344 V 0 Z"
         style="fill:#312933;fill-opacity:1;fill-rule:nonzero;stroke:none"
         id="path260" />
    </g>
    <g
       id="g262"
       transform="matrix(0.35277777,0,0,-0.35277777,158.79883,68.680714)">
      <path
         d="M 0,0 C -1.871,0 -3.445,0.287 -4.717,0.863 -5.988,1.439 -7.02,2.23 -7.812,3.24 c -0.792,1.008 -1.356,2.231 -1.692,3.672 -0.336,1.44 -0.504,3.024 -0.504,4.752 v 19.367 h -5.183 v 4.465 l 5.47,0.359 0.721,9.791 h 4.969 V 35.855 H 5.4 V 31.031 H -4.031 V 11.592 c 0,-2.16 0.394,-3.828 1.187,-5.004 0.791,-1.178 2.196,-1.764 4.211,-1.764 0.625,0 1.297,0.094 2.018,0.287 0.719,0.192 1.367,0.407 1.943,0.649 L 6.48,1.295 C 5.52,0.959 4.475,0.66 3.348,0.395 2.219,0.133 1.104,0 0,0"
         style="fill:#312933;fill-opacity:1;fill-rule:nonzero;stroke:none"
         id="path264" />
    </g>
    <g
       id="g266"
       transform="matrix(0.35277777,0,0,-0.35277777,58.301975,57.123113)">
      <path
         d="m 0,0 c -0.389,0.39 -1.081,0.458 -1.539,0.152 l -20.084,-13.389 c -0.457,-0.305 -1.189,-0.376 -1.626,-0.158 -0.437,0.218 -1.112,0.08 -1.501,-0.31 l -5.437,-5.437 c -0.389,-0.389 -0.389,-1.025 0,-1.414 l 7.025,-7.026 c 0.389,-0.389 1.025,-0.389 1.414,0 l 11.272,11.272 1.414,1.414 11.272,11.272 c 0.39,0.389 0.39,1.025 0,1.414 z m -30.979,-16.31 c 0.388,0.389 1.024,1.026 1.414,1.414 l 11.271,11.272 c 0.389,0.389 0.389,1.025 0,1.414 L -20.504,0 c -0.389,0.39 -1.081,0.458 -1.539,0.152 l -20.084,-13.389 c -0.458,-0.305 -1.234,-0.354 -1.727,-0.108 l -12.71,6.357 c -0.492,0.246 -1.212,0.129 -1.601,-0.26 l -2.211,-2.21 c -0.389,-0.389 -0.389,-1.025 0,-1.414 l 7.648,-7.648 c 0.389,-0.389 1.026,-1.025 1.415,-1.415 l 7.647,-7.647 c 0.389,-0.389 1.025,-0.389 1.414,0 z M 6.576,-48.449 c 0,-0.55 -0.45,-1 -1,-1 h -69.317 c -0.55,0 -1,0.45 -1,1 v 69.317 c 0,0.55 0.45,1 1,1 H 5.576 c 0.55,0 1,-0.45 1,-1 z"
         style="fill:#312933;fill-opacity:1;fill-rule:nonzero;stroke:none"
         id="path268" />
    </g>
  </g>
</svg>
