<svg id="Layer_1" data-name="Layer 1" xmlns="http://www.w3.org/2000/svg" viewBox="0 0 160 92"><defs><style>.cls-1{fill:#322933;}.cls-2{fill:#69b161;}</style></defs><title>rightRightLogo_008_SOURCE</title><path class="cls-1" d="M103,8.79a1.5,1.5,0,0,0,2.11,0l5.22-5.22a1.43,1.43,0,0,0,.1-2,1.43,1.43,0,0,0-2,.1L105.14,5A1.5,1.5,0,0,1,103,5L101.7,3.63a1.43,1.43,0,0,0-2-.1,1.43,1.43,0,0,0,.1,2Z"/><path class="cls-1" d="M19.72,6c.71-.34.71-.92,0-1.28L12.27.85A.8.8,0,0,0,11,1.63V8.77a.83.83,0,0,0,1.29.8Z"/><path class="cls-1" d="M1,14.72H3.4l.25,3.17h.11a8.09,8.09,0,0,1,2.18-2.63,4.51,4.51,0,0,1,2.79-1,4.67,4.67,0,0,1,1.87.36L10,17.24A6.91,6.91,0,0,0,9.24,17a4.72,4.72,0,0,0-.9-.07,3.92,3.92,0,0,0-2.32.9A7.16,7.16,0,0,0,3.91,21V32.21H1Z"/><rect class="cls-1" x="13.45" y="14.72" width="2.95" height="17.5"/><path class="cls-1" d="M19,35.56a3.72,3.72,0,0,1,.68-2.12,7.19,7.19,0,0,1,1.87-1.84v-.14a3.42,3.42,0,0,1-1.1-1.1,3.49,3.49,0,0,1,.16-3.69,5.52,5.52,0,0,1,1.3-1.3v-.14a7.13,7.13,0,0,1-1.57-1.93,5.44,5.44,0,0,1-.7-2.79,6.21,6.21,0,0,1,.52-2.59,5.85,5.85,0,0,1,1.42-2,6.27,6.27,0,0,1,2.11-1.24,7.46,7.46,0,0,1,2.54-.43,6.89,6.89,0,0,1,1.35.13,8.13,8.13,0,0,1,1.13.31h6.08V17h-3.6a5.15,5.15,0,0,1,1.44,3.6,6.19,6.19,0,0,1-.5,2.54A5.56,5.56,0,0,1,30.74,25a6.28,6.28,0,0,1-2,1.21,7.19,7.19,0,0,1-2.5.43,5.75,5.75,0,0,1-1.33-.16,6.61,6.61,0,0,1-1.3-.45,4.25,4.25,0,0,0-.79.88,2.13,2.13,0,0,0-.32,1.21,1.7,1.7,0,0,0,.65,1.37,4,4,0,0,0,2.45.54h3.38a8.55,8.55,0,0,1,4.59,1,3.51,3.51,0,0,1,1.53,3.19,4.7,4.7,0,0,1-.61,2.32,6,6,0,0,1-1.76,1.93,9.27,9.27,0,0,1-2.79,1.31,13,13,0,0,1-3.69.49,13.19,13.19,0,0,1-3-.31A7.17,7.17,0,0,1,21,39.05a4.55,4.55,0,0,1-1.48-1.48A3.82,3.82,0,0,1,19,35.56Zm2.59-.4a2.52,2.52,0,0,0,1.35,2.23,7.12,7.12,0,0,0,3.73.83,8,8,0,0,0,2.29-.31,6.35,6.35,0,0,0,1.75-.79A3.73,3.73,0,0,0,31.79,36a2.53,2.53,0,0,0,.4-1.33,1.74,1.74,0,0,0-.9-1.69,5.84,5.84,0,0,0-2.63-.47h-3c-.34,0-.7,0-1.1-.05a5.61,5.61,0,0,1-1.17-.23A4.77,4.77,0,0,0,22,33.66,3,3,0,0,0,21.56,35.17Zm4.64-10.48a3.54,3.54,0,0,0,1.42-.29,3.68,3.68,0,0,0,1.19-.83,3.75,3.75,0,0,0,.81-1.31,5,5,0,0,0,.29-1.75,4,4,0,0,0-1.08-3,3.78,3.78,0,0,0-5.26,0,4,4,0,0,0-1.08,3,5,5,0,0,0,.29,1.75,3.73,3.73,0,0,0,.81,1.31,3.67,3.67,0,0,0,1.19.83A3.54,3.54,0,0,0,26.21,24.69Z"/><path class="cls-1" d="M38.45,6.58h3v7l-.11,3.6a16.46,16.46,0,0,1,2.63-2,6,6,0,0,1,3.2-.85A4.71,4.71,0,0,1,51.17,16a8.55,8.55,0,0,1,1.28,5.11V32.21h-3V21.52a6.26,6.26,0,0,0-.79-3.58,2.9,2.9,0,0,0-2.52-1.1,4.31,4.31,0,0,0-2.41.68,15.71,15.71,0,0,0-2.38,2V32.21h-3Z"/><path class="cls-1" d="M58.53,17.13H55.94V14.9l2.74-.18L59,9.82h2.48v4.9h4.72v2.41H61.52v9.72a4.46,4.46,0,0,0,.59,2.5,2.35,2.35,0,0,0,2.11.88,3.89,3.89,0,0,0,1-.14,7.45,7.45,0,0,0,1-.32L66.78,32a15.57,15.57,0,0,1-1.57.45,7.39,7.39,0,0,1-1.67.2,5.71,5.71,0,0,1-2.36-.43A4,4,0,0,1,59.63,31a4.62,4.62,0,0,1-.85-1.84,10.46,10.46,0,0,1-.25-2.38Z"/><path class="cls-1" d="M76.56,0h2.09V41H76.56Z"/><path class="cls-1" d="M88.55,14.54H92l.29,3.13h.14A7.42,7.42,0,0,1,94.67,15a5,5,0,0,1,4.75-.56l-.72,3.6a8,8,0,0,0-.86-.22,5.57,5.57,0,0,0-1-.07,3.85,3.85,0,0,0-2.2.81,6.25,6.25,0,0,0-2,2.83v10.8H88.55Z"/><rect class="cls-1" x="101.98" y="14.54" width="4.14" height="17.68"/><path class="cls-1" d="M109.22,35.42a3.61,3.61,0,0,1,.65-2.07,6.06,6.06,0,0,1,1.87-1.71V31.5a3.58,3.58,0,0,1-1.13-1.15,3.33,3.33,0,0,1-.45-1.8,3.21,3.21,0,0,1,.59-1.89,5.72,5.72,0,0,1,1.35-1.39v-.14a6.32,6.32,0,0,1-1.6-1.89,5.44,5.44,0,0,1-.7-2.79,6.11,6.11,0,0,1,.58-2.7,6,6,0,0,1,1.53-2,6.53,6.53,0,0,1,2.21-1.22,8.5,8.5,0,0,1,2.66-.41,7.54,7.54,0,0,1,1.39.13,9.43,9.43,0,0,1,1.21.31h6.34V17.6h-3.24a4.21,4.21,0,0,1,.72,1.28,4.89,4.89,0,0,1,.29,1.71,6.06,6.06,0,0,1-.52,2.59,5.39,5.39,0,0,1-1.42,1.87,6.25,6.25,0,0,1-2.12,1.15,8.5,8.5,0,0,1-2.63.4,6.9,6.9,0,0,1-1.19-.11,5.92,5.92,0,0,1-1.22-.36,3.77,3.77,0,0,0-.63.72,1.77,1.77,0,0,0-.23,1,1.36,1.36,0,0,0,.63,1.19,4.21,4.21,0,0,0,2.25.43h3.13a9.24,9.24,0,0,1,4.84,1A3.63,3.63,0,0,1,126,33.8a4.82,4.82,0,0,1-.67,2.45,6.05,6.05,0,0,1-1.89,2,10.12,10.12,0,0,1-3,1.31,14.55,14.55,0,0,1-3.91.49,14.1,14.1,0,0,1-2.93-.29,7.69,7.69,0,0,1-2.32-.86,4.53,4.53,0,0,1-1.53-1.44A3.63,3.63,0,0,1,109.22,35.42Zm3.46-.61a2,2,0,0,0,1.21,1.85,7,7,0,0,0,3.33.67,6.33,6.33,0,0,0,3.47-.85,2.4,2.4,0,0,0,1.31-2,1.38,1.38,0,0,0-.81-1.4,5.9,5.9,0,0,0-2.32-.36h-2.41a9.78,9.78,0,0,1-2.41-.25A3,3,0,0,0,112.68,34.81Zm4.1-10.8a2.92,2.92,0,0,0,2.16-.92,3.63,3.63,0,0,0,.9-2.65,3.56,3.56,0,0,0-.88-2.57,2.9,2.9,0,0,0-2.18-.92,3,3,0,0,0-2.2.9,3.51,3.51,0,0,0-.9,2.59,3.62,3.62,0,0,0,.9,2.65A3,3,0,0,0,116.78,24Z"/><path class="cls-1" d="M129.13,6.8h4.14v6.55l-.14,3.42a14.59,14.59,0,0,1,2.47-1.85,6.08,6.08,0,0,1,3.19-.81,4.73,4.73,0,0,1,4.14,1.82,8.88,8.88,0,0,1,1.3,5.2V32.21h-4.14V21.67a5.5,5.5,0,0,0-.65-3.1,2.44,2.44,0,0,0-2.12-.9,3.73,3.73,0,0,0-2,.56,13,13,0,0,0-2,1.64V32.21h-4.14Z"/><path class="cls-1" d="M149.83,17.81h-2.52v-3.1l2.74-.18.5-4.82H154v4.82h4.5v3.28H154v8.42q0,3.1,2.48,3.1a4.68,4.68,0,0,0,1.84-.4L159,32a14,14,0,0,1-1.64.45,9.38,9.38,0,0,1-2,.2,6.48,6.48,0,0,1-2.61-.47,4.43,4.43,0,0,1-1.73-1.31,5.44,5.44,0,0,1-1-2,10.31,10.31,0,0,1-.31-2.61Z"/><path class="cls-2" d="M103,59.79a1.5,1.5,0,0,0,2.11,0l5.22-5.22a1.36,1.36,0,1,0-1.91-1.91L105.14,56A1.5,1.5,0,0,1,103,56l-1.33-1.33a1.36,1.36,0,1,0-1.91,1.91Z"/><path class="cls-2" d="M19.72,57c.71-.34.71-.92,0-1.28l-7.46-3.84a.8.8,0,0,0-1.27.78v7.15a.83.83,0,0,0,1.29.8Z"/><path class="cls-2" d="M1,65.72H3.4l.25,3.17h.11a8.09,8.09,0,0,1,2.18-2.63,4.51,4.51,0,0,1,2.79-1,4.67,4.67,0,0,1,1.87.36L10,68.24A6.91,6.91,0,0,0,9.24,68a4.72,4.72,0,0,0-.9-.07,3.92,3.92,0,0,0-2.32.9A7.16,7.16,0,0,0,3.91,72V83.21H1Z"/><rect class="cls-2" x="13.45" y="65.72" width="2.95" height="17.5"/><path class="cls-2" d="M19,86.56a3.72,3.72,0,0,1,.68-2.12,7.19,7.19,0,0,1,1.87-1.84v-.14a3.42,3.42,0,0,1-1.1-1.1,3.49,3.49,0,0,1,.16-3.69,5.52,5.52,0,0,1,1.3-1.3v-.14a7.13,7.13,0,0,1-1.57-1.93,5.44,5.44,0,0,1-.7-2.79,6.21,6.21,0,0,1,.52-2.59,5.85,5.85,0,0,1,1.42-2,6.27,6.27,0,0,1,2.11-1.24,7.46,7.46,0,0,1,2.54-.43,6.89,6.89,0,0,1,1.35.13,8.13,8.13,0,0,1,1.13.31h6.08V68h-3.6a5.15,5.15,0,0,1,1.44,3.6,6.19,6.19,0,0,1-.5,2.54A5.56,5.56,0,0,1,30.74,76a6.28,6.28,0,0,1-2,1.21,7.19,7.19,0,0,1-2.5.43,5.75,5.75,0,0,1-1.33-.16,6.61,6.61,0,0,1-1.3-.45,4.25,4.25,0,0,0-.79.88,2.13,2.13,0,0,0-.32,1.21,1.7,1.7,0,0,0,.65,1.37,4,4,0,0,0,2.45.54h3.38a8.55,8.55,0,0,1,4.59,1,3.51,3.51,0,0,1,1.53,3.19,4.7,4.7,0,0,1-.61,2.32,6,6,0,0,1-1.76,1.93,9.27,9.27,0,0,1-2.79,1.31,13,13,0,0,1-3.69.49,13.19,13.19,0,0,1-3-.31A7.17,7.17,0,0,1,21,90.05a4.55,4.55,0,0,1-1.48-1.48A3.82,3.82,0,0,1,19,86.56Zm2.59-.4a2.52,2.52,0,0,0,1.35,2.23,7.12,7.12,0,0,0,3.73.83,8,8,0,0,0,2.29-.31,6.35,6.35,0,0,0,1.75-.79A3.73,3.73,0,0,0,31.79,87a2.53,2.53,0,0,0,.4-1.33,1.74,1.74,0,0,0-.9-1.69,5.84,5.84,0,0,0-2.63-.47h-3c-.34,0-.7,0-1.1-.05a5.61,5.61,0,0,1-1.17-.23A4.77,4.77,0,0,0,22,84.66,3,3,0,0,0,21.56,86.17Zm4.64-10.48a3.54,3.54,0,0,0,1.42-.29,3.68,3.68,0,0,0,1.19-.83,3.75,3.75,0,0,0,.81-1.31,5,5,0,0,0,.29-1.75,4,4,0,0,0-1.08-3,3.78,3.78,0,0,0-5.26,0,4,4,0,0,0-1.08,3,5,5,0,0,0,.29,1.75,3.73,3.73,0,0,0,.81,1.31,3.67,3.67,0,0,0,1.19.83A3.54,3.54,0,0,0,26.21,75.69Z"/><path class="cls-2" d="M38.45,57.58h3v7l-.11,3.6a16.46,16.46,0,0,1,2.63-2,6,6,0,0,1,3.2-.85A4.71,4.71,0,0,1,51.17,67a8.55,8.55,0,0,1,1.28,5.11V83.21h-3V72.52a6.26,6.26,0,0,0-.79-3.58,2.9,2.9,0,0,0-2.52-1.1,4.31,4.31,0,0,0-2.41.68,15.71,15.71,0,0,0-2.38,2V83.21h-3Z"/><path class="cls-2" d="M58.53,68.13H55.94V65.9l2.74-.18.36-4.9h2.48v4.9h4.72v2.41H61.52v9.72a4.46,4.46,0,0,0,.59,2.5,2.35,2.35,0,0,0,2.11.88,3.89,3.89,0,0,0,1-.14,7.45,7.45,0,0,0,1-.32L66.78,83a15.57,15.57,0,0,1-1.57.45,7.39,7.39,0,0,1-1.67.2,5.71,5.71,0,0,1-2.36-.43A4,4,0,0,1,59.63,82a4.62,4.62,0,0,1-.85-1.84,10.46,10.46,0,0,1-.25-2.38Z"/><path class="cls-2" d="M76.56,51h2.09V92H76.56Z"/><path class="cls-2" d="M88.55,65.54H92l.29,3.13h.14A7.42,7.42,0,0,1,94.67,66a5,5,0,0,1,4.75-.56l-.72,3.6a8,8,0,0,0-.86-.22,5.57,5.57,0,0,0-1-.07,3.85,3.85,0,0,0-2.2.81,6.25,6.25,0,0,0-2,2.83v10.8H88.55Z"/><rect class="cls-2" x="101.98" y="65.54" width="4.14" height="17.68"/><path class="cls-2" d="M109.22,86.42a3.61,3.61,0,0,1,.65-2.07,6.06,6.06,0,0,1,1.87-1.71V82.5a3.58,3.58,0,0,1-1.13-1.15,3.33,3.33,0,0,1-.45-1.8,3.21,3.21,0,0,1,.59-1.89,5.72,5.72,0,0,1,1.35-1.39v-.14a6.32,6.32,0,0,1-1.6-1.89,5.44,5.44,0,0,1-.7-2.79,6.11,6.11,0,0,1,.58-2.7,6,6,0,0,1,1.53-2,6.53,6.53,0,0,1,2.21-1.22,8.5,8.5,0,0,1,2.66-.41,7.54,7.54,0,0,1,1.39.13,9.43,9.43,0,0,1,1.21.31h6.34V68.6h-3.24a4.21,4.21,0,0,1,.72,1.28,4.89,4.89,0,0,1,.29,1.71,6.06,6.06,0,0,1-.52,2.59,5.39,5.39,0,0,1-1.42,1.87,6.25,6.25,0,0,1-2.12,1.15,8.5,8.5,0,0,1-2.63.4,6.9,6.9,0,0,1-1.19-.11,5.92,5.92,0,0,1-1.22-.36,3.77,3.77,0,0,0-.63.72,1.77,1.77,0,0,0-.23,1,1.36,1.36,0,0,0,.63,1.19,4.21,4.21,0,0,0,2.25.43h3.13a9.24,9.24,0,0,1,4.84,1A3.63,3.63,0,0,1,126,84.8a4.82,4.82,0,0,1-.67,2.45,6.05,6.05,0,0,1-1.89,2,10.12,10.12,0,0,1-3,1.31,14.55,14.55,0,0,1-3.91.49,14.1,14.1,0,0,1-2.93-.29,7.69,7.69,0,0,1-2.32-.86,4.53,4.53,0,0,1-1.53-1.44A3.63,3.63,0,0,1,109.22,86.42Zm3.46-.61a2,2,0,0,0,1.21,1.85,7,7,0,0,0,3.33.67,6.33,6.33,0,0,0,3.47-.85,2.4,2.4,0,0,0,1.31-2,1.38,1.38,0,0,0-.81-1.4,5.9,5.9,0,0,0-2.32-.36h-2.41a9.78,9.78,0,0,1-2.41-.25A3,3,0,0,0,112.68,85.81Zm4.1-10.8a2.92,2.92,0,0,0,2.16-.92,3.63,3.63,0,0,0,.9-2.65,3.56,3.56,0,0,0-.88-2.57,2.9,2.9,0,0,0-2.18-.92,3,3,0,0,0-2.2.9,3.51,3.51,0,0,0-.9,2.59,3.62,3.62,0,0,0,.9,2.65A3,3,0,0,0,116.78,75Z"/><path class="cls-2" d="M129.13,57.8h4.14v6.55l-.14,3.42a14.59,14.59,0,0,1,2.47-1.85,6.08,6.08,0,0,1,3.19-.81,4.73,4.73,0,0,1,4.14,1.82,8.88,8.88,0,0,1,1.3,5.2V83.21h-4.14V72.67a5.5,5.5,0,0,0-.65-3.1,2.44,2.44,0,0,0-2.12-.9,3.73,3.73,0,0,0-2,.56,13,13,0,0,0-2,1.64V83.21h-4.14Z"/><path class="cls-2" d="M149.83,68.81h-2.52v-3.1l2.74-.18.5-4.82H154v4.82h4.5v3.28H154v8.42q0,3.1,2.48,3.1a4.68,4.68,0,0,0,1.84-.4L159,83a14,14,0,0,1-1.64.45,9.38,9.38,0,0,1-2,.2,6.48,6.48,0,0,1-2.61-.47,4.43,4.43,0,0,1-1.73-1.31,5.44,5.44,0,0,1-1-2,10.31,10.31,0,0,1-.31-2.61Z"/></svg>