<svg xmlns="http://www.w3.org/2000/svg" viewBox="0 0 1188 94.21"><defs><style>.cls-1{fill:#95c389;}</style></defs><g id="Livello_2" data-name="Livello 2"><g id="Livello_1-2" data-name="Livello 1"><polygon class="cls-1" points="29.98 9.96 39.99 9.96 1147.95 9.96 1157.96 9.96 1167.98 9.96 1177.99 9.96 1177.99 0 1167.98 0 1157.96 0 1147.95 0 39.99 0 29.98 0 19.97 0 9.96 0 9.96 9.96 19.97 9.96 29.98 9.96"/><polygon class="cls-1" points="1177.99 19.91 1177.99 64.34 1177.99 74.3 1177.99 84.25 1177.99 94.21 1188 94.21 1188 84.25 1188 74.3 1188 64.34 1188 19.91 1188 9.96 1177.99 9.96 1177.99 19.91"/><polygon class="cls-1" points="9.96 74.3 9.96 64.34 9.96 19.91 9.96 9.96 0 9.96 0 19.91 0 64.34 0 74.3 0 84.25 0 94.21 9.96 94.21 9.96 84.25 9.96 74.3"/></g></g></svg>