<svg xmlns="http://www.w3.org/2000/svg" viewBox="0 0 128.89 116.82"><defs><style>.cls-1{fill:#95c389;}</style></defs><g id="Livello_2" data-name="Livello 2"><g id="Livello_1-2" data-name="Livello 1"><rect class="cls-1" x="46.87" y="93.38" width="11.72" height="11.72"/><rect class="cls-1" x="35.15" y="81.67" width="11.72" height="11.72"/><rect class="cls-1" x="58.59" y="105.1" width="11.72" height="11.72"/><rect class="cls-1" x="70.3" y="93.38" width="11.72" height="11.72"/><rect class="cls-1" x="82.02" y="81.67" width="11.72" height="11.72"/><rect class="cls-1" x="93.74" y="70.13" width="11.72" height="11.72"/><rect class="cls-1" x="105.45" y="58.41" width="11.72" height="11.72"/><rect class="cls-1" x="117.17" y="46.69" width="11.72" height="11.72"/><rect class="cls-1" x="23.43" y="70.13" width="11.72" height="11.72"/><rect class="cls-1" x="11.72" y="58.41" width="11.72" height="11.72"/><rect class="cls-1" y="46.69" width="11.72" height="11.72"/><rect class="cls-1" x="46.87" y="46.69" width="11.72" height="11.72"/><rect class="cls-1" x="35.15" y="34.97" width="11.72" height="11.72"/><rect class="cls-1" x="58.59" y="58.41" width="11.72" height="11.72"/><rect class="cls-1" x="70.3" y="46.69" width="11.72" height="11.72"/><rect class="cls-1" x="82.02" y="34.97" width="11.72" height="11.72"/><rect class="cls-1" x="93.74" y="23.43" width="11.72" height="11.72"/><rect class="cls-1" x="105.45" y="11.72" width="11.72" height="11.72"/><rect class="cls-1" x="117.17" width="11.72" height="11.72"/><rect class="cls-1" x="23.43" y="23.43" width="11.72" height="11.72"/><rect class="cls-1" x="11.72" y="11.72" width="11.72" height="11.72"/><rect class="cls-1" width="11.72" height="11.72"/></g></g></svg>