<svg xmlns="http://www.w3.org/2000/svg" viewBox="0 0 24.28 23.69"><defs><style>.cls-1{fill:#fff;fill-rule:evenodd;}</style></defs><g id="Livello_2" data-name="Livello 2"><g id="Livello_1-2" data-name="Livello 1"><path class="cls-1" d="M12.14,0A12.14,12.14,0,0,0,8.3,23.66c.61.12.83-.26.83-.58s0-1,0-2.07C5.74,21.75,5,19.39,5,19.39a3.23,3.23,0,0,0-1.35-1.78c-1.1-.75.08-.74.08-.74a2.56,2.56,0,0,1,1.86,1.25,2.59,2.59,0,0,0,3.54,1,2.57,2.57,0,0,1,.77-1.62c-2.7-.31-5.53-1.35-5.53-6A4.68,4.68,0,0,1,5.65,8.25,4.31,4.31,0,0,1,5.76,5s1-.33,3.34,1.24a11.48,11.48,0,0,1,6.08,0C17.5,4.71,18.52,5,18.52,5a4.39,4.39,0,0,1,.12,3.21,4.68,4.68,0,0,1,1.25,3.26c0,4.66-2.84,5.69-5.55,6a2.88,2.88,0,0,1,.83,2.25c0,1.62,0,2.93,0,3.33s.22.7.84.58A12.14,12.14,0,0,0,12.14,0Z"/></g></g></svg>