<svg xmlns="http://www.w3.org/2000/svg" viewBox="0 0 149.91 30.02"><defs><style>.cls-1{fill:#95c389;}</style></defs><g id="Livello_2" data-name="Livello 2"><g id="Livello_1-2" data-name="Livello 1"><path class="cls-1" d="M40.23,22.64V7.9h2.06l.22,2.67h.09a6.63,6.63,0,0,1,1.83-2.21,3.78,3.78,0,0,1,2.35-.82,4,4,0,0,1,1.58.3L47.87,10a5.33,5.33,0,0,0-.67-.19,3.92,3.92,0,0,0-.75-.06,3.35,3.35,0,0,0-2,.76,6,6,0,0,0-1.77,2.64v9.46Z"/><path class="cls-1" d="M50.51,4.87a1.76,1.76,0,0,1-1.23-.45,1.51,1.51,0,0,1-.5-1.15,1.48,1.48,0,0,1,.5-1.17,1.93,1.93,0,0,1,2.45,0,1.45,1.45,0,0,1,.5,1.17,1.48,1.48,0,0,1-.5,1.15A1.75,1.75,0,0,1,50.51,4.87ZM49.23,22.64V7.9h2.49V22.64Z"/><path class="cls-1" d="M60.15,29.43a11.27,11.27,0,0,1-2.49-.26,5.77,5.77,0,0,1-1.92-.78,3.8,3.8,0,0,1-1.25-1.24,3.23,3.23,0,0,1-.44-1.7,3.14,3.14,0,0,1,.58-1.78,6,6,0,0,1,1.58-1.55V22a2.76,2.76,0,0,1-.93-.93,2.67,2.67,0,0,1-.38-1.47A2.62,2.62,0,0,1,55.42,18a4.33,4.33,0,0,1,1.09-1.09v-.13a5.75,5.75,0,0,1-1.32-1.62,4.61,4.61,0,0,1-.59-2.35A5.31,5.31,0,0,1,55,10.6,4.84,4.84,0,0,1,56.24,9,5.4,5.4,0,0,1,58,7.9a6.37,6.37,0,0,1,2.14-.36,5.78,5.78,0,0,1,1.13.11,7,7,0,0,1,1,.25h5.12V9.81h-3a4.32,4.32,0,0,1,.86,1.31,4.07,4.07,0,0,1,.35,1.72A5.24,5.24,0,0,1,65.12,15,4.75,4.75,0,0,1,64,16.59a5.2,5.2,0,0,1-1.71,1,5.84,5.84,0,0,1-2.1.37A5,5,0,0,1,59,17.83a5.86,5.86,0,0,1-1.09-.38,3.54,3.54,0,0,0-.66.74,1.77,1.77,0,0,0-.28,1,1.44,1.44,0,0,0,.55,1.15,3.3,3.3,0,0,0,2.06.46h2.85a7.12,7.12,0,0,1,3.86.83,3,3,0,0,1,1.29,2.68,4,4,0,0,1-.51,2,5.17,5.17,0,0,1-1.49,1.62A8.13,8.13,0,0,1,63.25,29,11,11,0,0,1,60.15,29.43Zm.36-1.73a6.7,6.7,0,0,0,1.92-.26,5,5,0,0,0,1.47-.67,3,3,0,0,0,.94-.95,2.09,2.09,0,0,0,.34-1.12,1.47,1.47,0,0,0-.76-1.43,5,5,0,0,0-2.21-.39H59.66c-.28,0-.59,0-.92-.05a4.68,4.68,0,0,1-1-.19,3.94,3.94,0,0,0-1.15,1.21,2.56,2.56,0,0,0-.36,1.27A2.1,2.1,0,0,0,57.37,27,6.06,6.06,0,0,0,60.51,27.7Zm-.36-11.4a3,3,0,0,0,1.19-.24,3,3,0,0,0,1-.7A3.12,3.12,0,0,0,63,14.25a4.2,4.2,0,0,0,.24-1.47,3.38,3.38,0,0,0-.91-2.53,3.2,3.2,0,0,0-4.43,0A3.42,3.42,0,0,0,57,12.78a4,4,0,0,0,.25,1.47A3.1,3.1,0,0,0,58,15.36a3,3,0,0,0,2.2.94Z"/><path class="cls-1" d="M68.94,22.64V1.05h2.48V6.93l-.09,3a14.5,14.5,0,0,1,2.21-1.72,5.08,5.08,0,0,1,2.7-.71A4,4,0,0,1,79.65,9a7.21,7.21,0,0,1,1.08,4.31v9.34H78.24v-9a5.19,5.19,0,0,0-.67-3,2.42,2.42,0,0,0-2.12-.93,3.58,3.58,0,0,0-2,.58,13.25,13.25,0,0,0-2,1.7V22.64Z"/><path class="cls-1" d="M88.55,23a4.88,4.88,0,0,1-2-.36,3.46,3.46,0,0,1-1.3-1,3.84,3.84,0,0,1-.71-1.54,8.88,8.88,0,0,1-.22-2V9.93H82.15V8.06l2.31-.16.3-4.12h2.09V7.9h4v2h-4v8.19a3.8,3.8,0,0,0,.5,2.11,2,2,0,0,0,1.77.74,3.28,3.28,0,0,0,.85-.12,4.9,4.9,0,0,0,.82-.28l.49,1.88c-.41.14-.85.27-1.32.38A6.31,6.31,0,0,1,88.55,23Z"/><path class="cls-1" d="M98.87,22.64V7.9h2.06l.21,2.67h.09a6.77,6.77,0,0,1,1.84-2.21,3.78,3.78,0,0,1,2.35-.82,3.92,3.92,0,0,1,1.57.3L106.51,10a5.85,5.85,0,0,0-.67-.19,4,4,0,0,0-.76-.06,3.35,3.35,0,0,0-2,.76,6,6,0,0,0-1.77,2.64v9.46Z"/><path class="cls-1" d="M109.15,4.87a1.76,1.76,0,0,1-1.23-.45,1.48,1.48,0,0,1-.5-1.15,1.45,1.45,0,0,1,.5-1.17,1.93,1.93,0,0,1,2.45,0,1.45,1.45,0,0,1,.5,1.17,1.48,1.48,0,0,1-.5,1.15A1.75,1.75,0,0,1,109.15,4.87Zm-1.28,17.77V7.9h2.49V22.64Z"/><path class="cls-1" d="M118.78,29.43a11.17,11.17,0,0,1-2.48-.26,5.92,5.92,0,0,1-1.93-.78,3.77,3.77,0,0,1-1.24-1.24,3.23,3.23,0,0,1-.44-1.7,3.07,3.07,0,0,1,.58-1.78,6.1,6.1,0,0,1,1.57-1.55V22a2.82,2.82,0,0,1-.92-.93,2.67,2.67,0,0,1-.38-1.47,2.62,2.62,0,0,1,.52-1.63,4.33,4.33,0,0,1,1.09-1.09v-.13a5.75,5.75,0,0,1-1.32-1.62,4.51,4.51,0,0,1-.59-2.35,5.15,5.15,0,0,1,.44-2.18A5,5,0,0,1,114.87,9a5.55,5.55,0,0,1,1.78-1,6.31,6.31,0,0,1,2.13-.36,5.8,5.8,0,0,1,1.14.11,7.43,7.43,0,0,1,1,.25H126V9.81h-3a4.32,4.32,0,0,1,.86,1.31,4.23,4.23,0,0,1,.35,1.72,5.08,5.08,0,0,1-.43,2.14,4.6,4.6,0,0,1-1.15,1.61,5.2,5.2,0,0,1-1.71,1,5.89,5.89,0,0,1-2.11.37,5,5,0,0,1-1.12-.14,5.62,5.62,0,0,1-1.09-.38,3.9,3.9,0,0,0-.67.74,1.85,1.85,0,0,0-.27,1,1.41,1.41,0,0,0,.55,1.15,3.3,3.3,0,0,0,2.06.46h2.85a7.14,7.14,0,0,1,3.86.83,3,3,0,0,1,1.29,2.68,3.91,3.91,0,0,1-.52,2,5,5,0,0,1-1.48,1.62A8.13,8.13,0,0,1,121.89,29,11,11,0,0,1,118.78,29.43Zm.37-1.73a6.75,6.75,0,0,0,1.92-.26,5,5,0,0,0,1.47-.67,3,3,0,0,0,.94-.95,2.18,2.18,0,0,0,.34-1.12,1.47,1.47,0,0,0-.76-1.43,5,5,0,0,0-2.22-.39H118.3c-.28,0-.59,0-.93-.05a4.72,4.72,0,0,1-1-.19,3.82,3.82,0,0,0-1.15,1.21,2.57,2.57,0,0,0-.37,1.27A2.11,2.11,0,0,0,116,27,6,6,0,0,0,119.15,27.7Zm-.37-11.4a3,3,0,0,0,1.2-.24,3.09,3.09,0,0,0,1.68-1.81,4,4,0,0,0,.25-1.47,3.42,3.42,0,0,0-.91-2.53,3.2,3.2,0,0,0-4.43,0,3.38,3.38,0,0,0-.91,2.53,4.2,4.2,0,0,0,.24,1.47,3.12,3.12,0,0,0,.69,1.11,3,3,0,0,0,1,.7A3,3,0,0,0,118.78,16.3Z"/><path class="cls-1" d="M127.57,22.64V1.05h2.49V6.93L130,10a14,14,0,0,1,2.21-1.72,5.08,5.08,0,0,1,2.7-.71A4,4,0,0,1,138.29,9a7.21,7.21,0,0,1,1.08,4.31v9.34h-2.49v-9a5.19,5.19,0,0,0-.67-3,2.42,2.42,0,0,0-2.12-.93,3.58,3.58,0,0,0-2,.58,12.78,12.78,0,0,0-2,1.7V22.64Z"/><path class="cls-1" d="M147.18,23a4.83,4.83,0,0,1-2-.36,3.38,3.38,0,0,1-1.3-1,3.86,3.86,0,0,1-.72-1.54,8.9,8.9,0,0,1-.21-2V9.93h-2.18V8.06l2.3-.16.31-4.12h2.09V7.9h4v2h-4v8.19a3.72,3.72,0,0,0,.5,2.11,2,2,0,0,0,1.77.74,3.34,3.34,0,0,0,.85-.12,5.24,5.24,0,0,0,.82-.28l.48,1.88a12.33,12.33,0,0,1-1.32.38A6.18,6.18,0,0,1,147.18,23Z"/><path class="cls-1" d="M30,29.18a.85.85,0,0,1-.84.84H.84A.85.85,0,0,1,0,29.18V.84A.85.85,0,0,1,.84,0H29.18A.85.85,0,0,1,30,.84ZM13.92,16.37l1.19-1.19L19.26,11a.86.86,0,0,0,0-1.19l-.34-.34a1.07,1.07,0,0,0-1.29-.12L9.87,14.55a1.64,1.64,0,0,1-1.45.09l-4.6-2.3a1.24,1.24,0,0,0-1.35.22l-.33.33a.84.84,0,0,0,0,1.19l2.62,2.63L6,17.9l2.62,2.62a.85.85,0,0,0,1.2,0ZM27.55,9.5a1.07,1.07,0,0,0-1.29-.12L18.5,14.55a1.42,1.42,0,0,1-1,.3c-.19-.1-.6.1-.93.42L14.84,17a.86.86,0,0,0,0,1.19l2.37,2.36a.84.84,0,0,0,1.19,0l4.15-4.15,1.19-1.19L27.89,11a.84.84,0,0,0,0-1.19Z"/></g></g></svg>