<?xml version="1.0" encoding="UTF-8" standalone="no"?>
<svg
   viewBox="0 0 30.02 30.02"
   version="1.1"
   id="svg30"
   sodipodi:docname="marchio right right.svg"
   width="30.02"
   height="30.02"
   inkscape:version="1.2.2 (b0a84865, 2022-12-01)"
   xmlns:inkscape="http://www.inkscape.org/namespaces/inkscape"
   xmlns:sodipodi="http://sodipodi.sourceforge.net/DTD/sodipodi-0.dtd"
   xmlns="http://www.w3.org/2000/svg"
   xmlns:svg="http://www.w3.org/2000/svg">
  <sodipodi:namedview
     id="namedview32"
     pagecolor="#ffffff"
     bordercolor="#000000"
     borderopacity="0.25"
     inkscape:showpageshadow="2"
     inkscape:pageopacity="0.0"
     inkscape:pagecheckerboard="0"
     inkscape:deskcolor="#d1d1d1"
     showgrid="false"
     inkscape:zoom="7.8614256"
     inkscape:cx="75.304408"
     inkscape:cy="11.511907"
     inkscape:window-width="2290"
     inkscape:window-height="1197"
     inkscape:window-x="0"
     inkscape:window-y="25"
     inkscape:window-maximized="0"
     inkscape:current-layer="svg30" />
  <defs
     id="defs4">
    <style
       id="style2">.cls-1{fill:#95c389;}</style>
  </defs>
  <path
     class="cls-1"
     d="m 30,29.18 a 0.85,0.85 0 0 1 -0.84,0.84 H 0.84 A 0.85,0.85 0 0 1 0,29.18 V 0.84 A 0.85,0.85 0 0 1 0.84,0 H 29.18 A 0.85,0.85 0 0 1 30,0.84 Z M 13.92,16.37 15.11,15.18 19.26,11 a 0.86,0.86 0 0 0 0,-1.19 L 18.92,9.47 A 1.07,1.07 0 0 0 17.63,9.35 l -7.76,5.2 a 1.64,1.64 0 0 1 -1.45,0.09 l -4.6,-2.3 a 1.24,1.24 0 0 0 -1.35,0.22 l -0.33,0.33 a 0.84,0.84 0 0 0 0,1.19 L 4.76,16.71 6,17.9 8.62,20.52 a 0.85,0.85 0 0 0 1.2,0 z M 27.55,9.5 A 1.07,1.07 0 0 0 26.26,9.38 l -7.76,5.17 a 1.42,1.42 0 0 1 -1,0.3 c -0.19,-0.1 -0.6,0.1 -0.93,0.42 L 14.84,17 a 0.86,0.86 0 0 0 0,1.19 l 2.37,2.36 a 0.84,0.84 0 0 0 1.19,0 L 22.55,16.4 23.74,15.21 27.89,11 a 0.84,0.84 0 0 0 0,-1.19 z"
     id="path26" />
</svg>
