<svg xmlns="http://www.w3.org/2000/svg" viewBox="0 0 886 139.38"><defs><style>.cls-1{fill:#95c389;}</style></defs><g id="Livello_2" data-name="Livello 2"><g id="Livello_1-2" data-name="Livello 1"><polygon class="cls-1" points="876.04 9.96 876.04 0 866.03 0 856.02 0 846.01 0 40.05 0 30.04 0 20.02 0 10.01 0 10.01 9.96 0 9.96 0 19.91 0 99.56 0 109.51 0 119.47 0 129.42 10.01 129.42 10.01 139.38 20.02 139.38 30.04 139.38 40.05 139.38 846.01 139.38 856.02 139.38 866.03 139.38 876.04 139.38 876.04 129.42 886 129.42 886 119.47 886 109.51 886 99.56 886 19.91 886 9.96 876.04 9.96"/></g></g></svg>