<svg xmlns="http://www.w3.org/2000/svg" viewBox="0 0 1142.28 868.6"><defs><style>.cls-1{fill:#fff;}</style></defs><g id="Livello_2" data-name="Livello 2"><g id="Livello_1-2" data-name="Livello 1"><polygon points="0 119.11 0 561.32 0 660.41 0 759.5 0 858.59 10.01 858.59 10.01 759.5 10.01 660.41 10.01 561.32 10.01 119.11 10.01 20.02 0 20.02 0 119.11"/><polygon points="1132.27 119.11 1132.27 561.32 1132.27 660.41 1132.27 759.5 1132.27 858.59 1142.29 858.59 1142.29 759.5 1142.29 660.41 1142.29 561.32 1142.29 119.11 1142.29 20.02 1132.27 20.02 1132.27 119.11"/><polygon points="142.63 868.6 734.43 868.6 867.05 868.6 999.66 868.6 1132.27 868.6 1132.27 858.59 999.66 858.59 867.05 858.59 734.43 858.59 142.63 858.59 10.01 858.59 10.01 868.6 142.63 868.6"/><polygon points="999.66 0 867.05 0 734.43 0 142.63 0 10.01 0 10.01 10.01 10.01 20.02 142.63 20.02 734.43 20.02 867.05 20.02 999.66 20.02 1132.27 20.02 1132.27 10.01 1132.27 0 999.66 0"/><polygon class="cls-1" points="1122.8 10.01 1126.16 6.65 1124.48 4.97 1121.12 8.33 1117.76 4.97 1116.08 6.65 1119.44 10.01 1116.08 13.37 1116.08 13.37 1117.76 15.05 1121.12 11.69 1124.48 15.05 1124.48 15.05 1126.16 13.37 1122.8 10.01"/></g></g></svg>