<svg xmlns="http://www.w3.org/2000/svg" viewBox="0 0 886 139.38"><g id="Livello_2" data-name="Livello 2"><g id="Livello_1-2" data-name="Livello 1"><polygon points="29.98 9.96 39.99 9.96 845.95 9.96 855.96 9.96 865.98 9.96 875.99 9.96 875.99 0 865.98 0 855.96 0 845.95 0 39.99 0 29.98 0 19.97 0 9.96 0 9.96 9.96 19.97 9.96 29.98 9.96"/><polygon points="875.99 9.96 875.99 19.91 875.99 99.56 875.99 109.51 875.99 119.47 875.99 129.42 886 129.42 886 119.47 886 109.51 886 99.56 886 19.91 886 9.96 875.99 9.96"/><polygon points="855.96 129.42 845.95 129.42 39.99 129.42 29.98 129.42 19.97 129.42 9.96 129.42 9.96 139.38 19.97 139.38 29.98 139.38 39.99 139.38 845.95 139.38 855.96 139.38 865.98 139.38 875.99 139.38 875.99 129.42 865.98 129.42 855.96 129.42"/><polygon points="9.96 109.51 9.96 99.56 9.96 19.91 9.96 9.96 0 9.96 0 19.91 0 99.56 0 109.51 0 119.47 0 129.42 9.96 129.42 9.96 119.47 9.96 109.51"/></g></g></svg>